<?xml version="1.0" encoding="utf-8"?>
<!-- Generator: Adobe Illustrator 26.1.0, SVG Export Plug-In . SVG Version: 6.00 Build 0)  -->
<svg version="1.1" id="Layer_1" xmlns="http://www.w3.org/2000/svg" xmlns:xlink="http://www.w3.org/1999/xlink" x="0px" y="0px"
	 viewBox="0 0 122.75 46.24" style="enable-background:new 0 0 122.75 46.24;" xml:space="preserve">
<style type="text/css">
	.st0{clip-path:url(#SVGID_00000075879223646011051660000002685698882038476444_);}
	.st1{fill:#223036;}
</style>
<g id="Group_46" transform="translate(0 0)">
	<g>
		<defs>
			<rect id="SVGID_1_" x="1.74" y="2.15" width="119.26" height="41.7"/>
		</defs>
		<clipPath id="SVGID_00000105407187124519529030000014516257461110380715_">
			<use xlink:href="#SVGID_1_"  style="overflow:visible;"/>
		</clipPath>
		
			<g id="Group_45" transform="translate(0 0)" style="clip-path:url(#SVGID_00000105407187124519529030000014516257461110380715_);">
			<path id="Path_103" class="st1" d="M57.36,15.97h-4.42c-0.15,0-0.27-0.12-0.27-0.27v0v-4.43c0-0.15,0.12-0.27,0.27-0.27
				c0,0,0,0,0,0h4.43c0.15,0,0.27,0.12,0.27,0.27c0,0,0,0,0,0v4.43C57.64,15.85,57.52,15.97,57.36,15.97
				C57.37,15.97,57.37,15.97,57.36,15.97 M53.21,15.44h3.89v-3.89h-3.89L53.21,15.44z"/>
			<path id="Path_104" class="st1" d="M44.08,15.97h-4.43c-0.15,0-0.27-0.12-0.27-0.27c0,0,0,0,0,0v-4.43
				c0-0.11,0.07-0.21,0.17-0.25c0.1-0.04,0.22-0.02,0.29,0.06l4.43,4.43c0.1,0.11,0.1,0.28,0,0.38
				C44.22,15.95,44.15,15.97,44.08,15.97 M39.92,15.43h3.51l-3.51-3.51V15.43z"/>
			<path id="Path_105" class="st1" d="M39.65,20.4h-4.42c-0.15,0-0.27-0.12-0.27-0.27l0,0v-8.86c0-0.15,0.12-0.27,0.27-0.27
				c0,0,0,0,0,0h4.43c0.15,0,0.27,0.12,0.27,0.27c0,0,0,0,0,0v8.86C39.92,20.28,39.8,20.4,39.65,20.4 M35.5,19.86h3.89v-8.32h-3.89
				L35.5,19.86z"/>
			<path id="Path_106" class="st1" d="M48.51,20.4c-0.07,0-0.14-0.03-0.19-0.08l-4.43-4.43c-0.05-0.05-0.08-0.12-0.08-0.19V6.85
				c0-0.15,0.12-0.27,0.27-0.27c0,0,0,0,0,0h4.43c0.15,0,0.27,0.12,0.27,0.27c0,0,0,0,0,0v13.28c0,0.11-0.07,0.21-0.17,0.25
				L48.51,20.4z M44.35,15.59l3.89,3.89V7.11h-3.89V15.59z"/>
			<path id="Path_107" class="st1" d="M52.94,15.97h-4.43c-0.15,0-0.27-0.12-0.27-0.27c0,0,0,0,0,0V2.42c0-0.15,0.12-0.27,0.27-0.27
				h4.43c0.15,0,0.27,0.12,0.27,0.27V15.7C53.21,15.85,53.09,15.97,52.94,15.97C52.94,15.97,52.94,15.97,52.94,15.97 M48.78,15.44
				h3.88V2.69h-3.88V15.44z"/>
			<path id="Path_108" class="st1" d="M120.73,15.97H57.36c-0.15,0-0.27-0.12-0.27-0.27c0-0.15,0.12-0.27,0.27-0.27h63.37
				c0.15,0,0.27,0.12,0.27,0.27C121,15.85,120.88,15.97,120.73,15.97"/>
			<rect id="Rectangle_35" x="1.74" y="13.79" class="st1" width="0.66" height="6.6"/>
			<path id="Path_109" class="st1" d="M5.7,15.72c1.11-0.06,2.06,0.8,2.11,1.91c0,0.03,0,0.05,0,0.08l-0.59,0.04
				c0.01-0.82-0.64-1.49-1.46-1.5c-0.03,0-0.06,0-0.09,0c-0.91,0.02-1.64,0.78-1.61,1.7c0,0.06,0.01,0.11,0.01,0.17
				c-0.12,0.91,0.52,1.74,1.43,1.85c0.06,0.01,0.11,0.01,0.17,0.01c0.83,0.03,1.52-0.62,1.55-1.45c0-0.02,0-0.05,0-0.07l0.59,0.06
				c-0.01,1.11-0.92,2-2.04,1.99c-0.03,0-0.05,0-0.08,0c-1.23,0.04-2.26-0.92-2.3-2.15c0-0.08,0-0.16,0.01-0.25
				c-0.09-1.23,0.82-2.3,2.05-2.39C5.54,15.72,5.62,15.72,5.7,15.72"/>
			<path id="Path_110" class="st1" d="M12.89,18.84c-0.16,1.01-1.06,1.73-2.09,1.68c-1.23,0.05-2.26-0.91-2.31-2.14
				c0-0.07,0-0.13,0-0.2c-0.09-1.27,0.87-2.37,2.13-2.45c0.04,0,0.09,0,0.13-0.01c1.14-0.04,2.1,0.85,2.14,1.99
				c0,0.09,0,0.18-0.01,0.27v0.3H9.16C9.14,19.2,9.87,19.97,10.8,20c0,0,0.01,0,0.01,0c0.76,0.06,1.43-0.48,1.54-1.23L12.89,18.84z
				 M12.22,17.82c0.07-0.81-0.53-1.53-1.35-1.59c-0.04,0-0.07,0-0.11-0.01c-0.86,0.04-1.55,0.74-1.59,1.6H12.22z"/>
			<rect id="Rectangle_36" x="13.86" y="13.79" class="st1" width="0.64" height="6.6"/>
			<path id="Path_111" class="st1" d="M19.25,19.63c-0.02,0.18,0.12,0.34,0.3,0.36c0.02,0,0.05,0,0.07,0
				c0.14-0.01,0.28-0.05,0.41-0.12v0.35c-0.14,0.18-0.37,0.29-0.6,0.27c-0.45,0-0.78-0.39-0.8-0.96c-0.33,0.62-0.98,1-1.69,0.99
				c-0.68,0.09-1.31-0.39-1.4-1.08c-0.01-0.06-0.01-0.12-0.01-0.18c0-0.86,0.76-1.2,1.89-1.43l1.23-0.25v-0.23
				c0.05-0.57-0.36-1.07-0.93-1.12c-0.06-0.01-0.13-0.01-0.19,0c-0.63-0.03-1.18,0.4-1.3,1.02l-0.55-0.1
				c0.18-0.86,0.96-1.46,1.83-1.42c0.85-0.11,1.62,0.5,1.73,1.35c0.02,0.12,0.02,0.25,0,0.37V19.63z M18.65,18.04l-1.11,0.24
				c-0.83,0.18-1.34,0.35-1.34,0.95c-0.01,0.43,0.33,0.78,0.76,0.79c0.04,0,0.08,0,0.12-0.01c0.87,0,1.58-0.71,1.58-1.58
				c0-0.04,0-0.08,0-0.12L18.65,18.04z"/>
			<path id="Path_112" class="st1" d="M21.4,20.39h-0.64v-4.55h0.64v0.83c0.27-0.6,0.87-0.97,1.53-0.96c1.17,0,1.67,0.76,1.67,1.85
				v2.82h-0.64v-2.84c0-0.81-0.42-1.33-1.2-1.33c-0.76,0.01-1.37,0.63-1.36,1.39c0,0.02,0,0.04,0,0.06L21.4,20.39z"/>
			<path id="Path_113" class="st1" d="M29.28,19.4c-0.26,0.69-0.94,1.15-1.68,1.12c-1.18-0.01-2.13-0.98-2.12-2.16
				c0-0.08,0.01-0.16,0.02-0.24c-0.14-1.18,0.7-2.24,1.87-2.38c0.08-0.01,0.15-0.01,0.23-0.02c0.74-0.02,1.42,0.44,1.68,1.13v-3.06
				h0.64v6.6h-0.64V19.4z M29.3,17.96c0.08-0.87-0.57-1.64-1.44-1.71c-0.06-0.01-0.12-0.01-0.18-0.01c-0.96,0-1.52,0.72-1.52,1.88
				c0,1.15,0.56,1.88,1.52,1.88c0.87,0.02,1.6-0.67,1.62-1.54c0-0.06,0-0.12-0.01-0.18V17.96z"/>
			<path id="Path_114" class="st1" d="M2.4,24.63v6.05H6.2v0.56H1.74v-6.6L2.4,24.63z"/>
			<path id="Path_115" class="st1" d="M7.17,24.63h0.68v0.85H7.17V24.63z M7.83,31.23H7.19v-4.55h0.64V31.23z"/>
			<path id="Path_116" class="st1" d="M13.28,29.68c-0.16,1.01-1.06,1.73-2.09,1.68c-1.23,0.05-2.26-0.91-2.31-2.14
				c0-0.07,0-0.13,0-0.2c-0.09-1.27,0.86-2.37,2.13-2.46c0.04,0,0.09,0,0.13-0.01c1.14-0.04,2.1,0.84,2.15,1.99
				c0,0.09,0,0.19-0.01,0.28v0.29H9.55c-0.02,0.93,0.71,1.7,1.64,1.72c0,0,0.01,0,0.01,0c0.76,0.06,1.43-0.48,1.54-1.23L13.28,29.68
				z M12.61,28.66c0.07-0.81-0.53-1.53-1.35-1.59c-0.04,0-0.07,0-0.11-0.01c-0.86,0.05-1.55,0.74-1.59,1.6H12.61z"/>
			<path id="Path_117" class="st1" d="M16.37,26.55c1.11-0.06,2.06,0.8,2.11,1.91c0,0.03,0,0.05,0,0.08l-0.59,0.04
				c0.01-0.82-0.64-1.49-1.46-1.5c-0.03,0-0.06,0-0.09,0c-0.91,0.02-1.64,0.78-1.61,1.7c0,0.06,0.01,0.11,0.01,0.17
				c-0.12,0.91,0.52,1.74,1.43,1.85c0.06,0.01,0.11,0.01,0.17,0.01c0.83,0.03,1.52-0.62,1.55-1.45c0-0.02,0-0.05,0-0.07l0.59,0.06
				c-0.01,1.11-0.92,2.01-2.04,1.99c-0.03,0-0.05,0-0.08,0c-1.23,0.04-2.26-0.93-2.3-2.16c0-0.08,0-0.16,0.01-0.24
				c-0.1-1.23,0.82-2.3,2.05-2.39C16.21,26.55,16.29,26.55,16.37,26.55"/>
			<path id="Path_118" class="st1" d="M20.19,31.23h-0.64v-6.6h0.64v2.89c0.27-0.6,0.87-0.98,1.53-0.97c1.18,0,1.67,0.76,1.67,1.85
				v2.82h-0.64v-2.84c0-0.81-0.42-1.33-1.2-1.33c-0.76,0.01-1.37,0.63-1.36,1.39c0,0.02,0,0.04,0,0.06V31.23z"/>
			<path id="Path_119" class="st1" d="M24.85,27.15h-0.7v-0.32l0.27-0.05c0.42-0.08,0.51-0.28,0.6-0.72l0.14-0.65h0.33v1.27h1.32
				v0.47h-1.32v3.08c0,0.41,0.17,0.61,0.58,0.61c0.32-0.02,0.63-0.13,0.89-0.31v0.45c-0.31,0.26-0.71,0.39-1.11,0.38
				c-0.61,0-0.99-0.3-0.99-1.13L24.85,27.15z"/>
			<path id="Path_120" class="st1" d="M31.88,29.68c-0.16,1.01-1.06,1.73-2.09,1.68c-1.23,0.05-2.26-0.91-2.31-2.14
				c0-0.06,0-0.13,0-0.19c-0.09-1.27,0.86-2.37,2.13-2.46c0.04,0,0.09,0,0.13-0.01c1.14-0.04,2.1,0.84,2.15,1.99
				c0,0.09,0,0.19-0.01,0.28v0.29h-3.74c-0.02,0.93,0.71,1.7,1.64,1.72c0,0,0.01,0,0.01,0c0.76,0.06,1.43-0.48,1.54-1.23
				L31.88,29.68z M31.21,28.66c0.07-0.81-0.53-1.53-1.35-1.59c-0.04,0-0.07,0-0.11-0.01c-0.86,0.05-1.55,0.74-1.59,1.6H31.21z"/>
			<path id="Path_121" class="st1" d="M33.59,31.23h-0.64v-4.55h0.64v0.84c0.27-0.6,0.87-0.97,1.53-0.96c1.17,0,1.67,0.76,1.67,1.85
				v2.82h-0.64v-2.84c0-0.81-0.42-1.33-1.19-1.33c-0.76,0.01-1.37,0.62-1.36,1.38c0,0.02,0,0.04,0,0.06V31.23z"/>
			<path id="Path_122" class="st1" d="M38.28,29.63c0.06,0.74,0.7,1.29,1.44,1.23c0.02,0,0.04,0,0.06-0.01c0.7,0,1.19-0.26,1.19-0.8
				c0-0.5-0.36-0.66-1-0.78l-0.79-0.13c-0.8-0.14-1.29-0.5-1.29-1.24c0-0.82,0.68-1.35,1.68-1.35c1.17,0,1.86,0.56,1.93,1.64
				l-0.49,0.04c-0.04-0.69-0.63-1.22-1.32-1.19c-0.04,0-0.08,0.01-0.12,0.01c-0.65,0-1.08,0.29-1.08,0.78
				c0,0.44,0.26,0.66,0.83,0.76l0.84,0.13c0.89,0.15,1.41,0.46,1.41,1.27c0,0.89-0.8,1.36-1.79,1.36c-0.98,0.13-1.88-0.56-2.01-1.54
				c-0.01-0.04-0.01-0.08-0.01-0.12L38.28,29.63z"/>
			<path id="Path_123" class="st1" d="M42.81,27.15h-0.7v-0.32l0.27-0.05c0.42-0.08,0.5-0.28,0.6-0.72l0.14-0.65h0.32v1.27h1.32
				v0.47h-1.32v3.08c0,0.41,0.17,0.61,0.59,0.61c0.32-0.02,0.63-0.13,0.89-0.31v0.45c-0.31,0.26-0.71,0.39-1.11,0.38
				c-0.61,0-1-0.3-1-1.13L42.81,27.15z"/>
			<path id="Path_124" class="st1" d="M49.84,29.68c-0.16,1.01-1.06,1.73-2.09,1.68c-1.23,0.04-2.26-0.92-2.3-2.15
				c0-0.06,0-0.13,0-0.19c-0.09-1.27,0.86-2.37,2.13-2.46c0.04,0,0.09,0,0.13-0.01c1.14-0.04,2.1,0.85,2.15,1.99
				c0,0.09,0,0.18-0.01,0.28v0.29h-3.74c-0.02,0.93,0.71,1.69,1.63,1.72c0,0,0.01,0,0.01,0c0.76,0.06,1.43-0.48,1.54-1.23
				L49.84,29.68z M49.17,28.66c0.07-0.81-0.53-1.53-1.35-1.59c-0.04,0-0.07,0-0.11-0.01c-0.86,0.04-1.55,0.74-1.59,1.6H49.17z"/>
			<path id="Path_125" class="st1" d="M50.89,24.63h0.68v0.85h-0.68V24.63z M51.55,31.23h-0.64v-4.55h0.64L51.55,31.23z"/>
			<path id="Path_126" class="st1" d="M53.55,31.23h-0.64v-4.55h0.64v0.84c0.27-0.6,0.87-0.97,1.53-0.96c1.17,0,1.67,0.76,1.67,1.85
				v2.82h-0.64v-2.84c0-0.81-0.42-1.33-1.2-1.33c-0.76,0.01-1.37,0.63-1.36,1.39c0,0.02,0,0.04,0,0.06L53.55,31.23z"/>
			<path id="Path_127" class="st1" d="M6.38,40.9v-5.44H7v6.6H6.48l-4.11-5.69v5.69H1.74v-6.6h0.73L6.38,40.9z"/>
			<path id="Path_128" class="st1" d="M10.28,42.19c-1.25,0.01-2.27-1-2.28-2.25c0-0.05,0-0.1,0-0.15c-0.06-1.26,0.9-2.33,2.16-2.4
				c1.26-0.06,2.33,0.9,2.4,2.16c0,0.08,0,0.16,0,0.23c0.07,1.25-0.88,2.32-2.13,2.4C10.39,42.19,10.34,42.19,10.28,42.19
				 M10.28,41.69c1.03,0,1.61-0.79,1.61-1.9s-0.59-1.9-1.61-1.9s-1.6,0.79-1.6,1.9S9.27,41.69,10.28,41.69"/>
			<path id="Path_129" class="st1" d="M16.05,38.16c-0.21-0.12-0.45-0.19-0.69-0.18c-0.66,0-1.19,0.68-1.19,1.59v2.49h-0.64v-4.55
				h0.64v0.95c0.17-0.6,0.69-1.03,1.31-1.08c0.24-0.02,0.47,0.06,0.65,0.21L16.05,38.16z"/>
			<path id="Path_130" class="st1" d="M20.88,41.21h0.04l1.12-3.69h0.61l-1.45,4.55H20.6l-1.06-3.63h-0.04l-1.05,3.63h-0.61
				l-1.45-4.55h0.64l1.14,3.69h0.04l1.05-3.69h0.56L20.88,41.21z"/>
			<path id="Path_131" class="st1" d="M26.83,41.3c-0.02,0.18,0.12,0.34,0.3,0.36c0.02,0,0.05,0,0.07,0
				c0.14-0.01,0.28-0.05,0.41-0.12v0.35c-0.14,0.18-0.37,0.29-0.6,0.27c-0.45,0-0.78-0.39-0.8-0.96c-0.33,0.62-0.98,1.01-1.69,1
				c-0.69,0.09-1.32-0.39-1.4-1.08c-0.01-0.06-0.01-0.12-0.01-0.18c0-0.86,0.76-1.2,1.89-1.43l1.22-0.25v-0.23
				c0.05-0.57-0.36-1.07-0.93-1.12c-0.06-0.01-0.13-0.01-0.19,0c-0.62-0.03-1.17,0.4-1.3,1.01l-0.55-0.1
				c0.18-0.86,0.96-1.46,1.83-1.42c0.85-0.11,1.63,0.49,1.74,1.34c0.02,0.13,0.02,0.26,0,0.38V41.3z M26.22,39.72l-1.11,0.24
				c-0.83,0.18-1.34,0.35-1.34,0.95c-0.01,0.43,0.33,0.78,0.76,0.79c0.04,0,0.08,0,0.12-0.01c0.87,0,1.58-0.71,1.58-1.58
				c0-0.04,0-0.08,0-0.12L26.22,39.72z"/>
			<path id="Path_132" class="st1" d="M28.82,43.85l0.76-1.81l-1.93-4.52h0.67l1.56,3.74h0.04l1.51-3.74h0.63l-2.62,6.33H28.82z"/>
			<path id="Path_133" class="st1" d="M71.92,24.63l2.69,6.6h-1.39l-0.66-1.64h-2.81l-0.64,1.64h-1.32l2.67-6.6L71.92,24.63z
				 M70.15,28.59h2.01l-1-2.47h-0.04L70.15,28.59z"/>
			<path id="Path_134" class="st1" d="M77.29,26.48c1.16-0.07,2.16,0.82,2.23,1.98c0,0.01,0,0.02,0,0.03l-1.06,0.07
				c-0.01-0.63-0.52-1.13-1.15-1.12c-0.01,0-0.02,0-0.03,0c-0.69,0-1.17,0.51-1.17,1.48c0,0.96,0.48,1.47,1.17,1.47
				c0.63,0.02,1.16-0.48,1.17-1.11c0-0.01,0-0.02,0-0.03l1.06,0.09c-0.05,1.16-1.04,2.06-2.2,2.01c-0.01,0-0.02,0-0.03,0
				c-1.28,0.07-2.37-0.91-2.44-2.19c0-0.08,0-0.16,0-0.24c-0.07-1.28,0.92-2.38,2.2-2.44C77.14,26.48,77.22,26.48,77.29,26.48"/>
			<path id="Path_135" class="st1" d="M80.46,27.49h-0.67v-0.74l0.32-0.05c0.45-0.07,0.58-0.3,0.68-0.73l0.15-0.63h0.76v1.28h1.26
				v0.88h-1.25v2.28c0,0.4,0.18,0.58,0.56,0.58c0.27-0.02,0.54-0.09,0.79-0.22v0.83c-0.37,0.28-0.82,0.42-1.28,0.4
				c-0.64,0.08-1.22-0.37-1.31-1.01c-0.01-0.1-0.01-0.2,0-0.29L80.46,27.49z"/>
			<path id="Path_136" class="st1" d="M83.74,24.63h1.29v1.22h-1.29V24.63z M85.02,31.23h-1.26v-4.62h1.26V31.23z"/>
			<path id="Path_137" class="st1" d="M87.4,31.23l-1.82-4.62h1.32l1.23,3.22h0.04l1.21-3.22h1.23l-1.82,4.62L87.4,31.23z"/>
			<path id="Path_138" class="st1" d="M95.47,29.72c-0.22,1.03-1.18,1.73-2.22,1.63c-1.26,0.09-2.35-0.85-2.45-2.11
				c-0.01-0.09-0.01-0.17,0-0.26c-0.06-1.32,0.96-2.44,2.28-2.5c0.05,0,0.1,0,0.14,0c1.19-0.07,2.21,0.84,2.28,2.03
				c0.01,0.09,0.01,0.19,0,0.28v0.45h-3.47c0.03,0.67,0.59,1.18,1.26,1.16c0.53,0.05,1.02-0.27,1.16-0.78L95.47,29.72z M94.28,28.45
				c0-0.58-0.46-1.04-1.04-1.05c-0.01,0-0.02,0-0.03,0c-0.6-0.01-1.1,0.45-1.15,1.05H94.28z"/>
			<path id="Path_139" class="st1" d="M70.43,37.32c1.16-0.07,2.16,0.82,2.23,1.98c0,0.01,0,0.02,0,0.03l-1.06,0.07
				c-0.01-0.63-0.52-1.13-1.15-1.12c-0.01,0-0.02,0-0.03,0c-0.69,0-1.17,0.51-1.17,1.48c0,0.96,0.48,1.47,1.17,1.47
				c0.63,0.02,1.16-0.48,1.17-1.11c0-0.01,0-0.02,0-0.03l1.06,0.09c-0.05,1.16-1.04,2.06-2.2,2.01c-0.01,0-0.02,0-0.03,0
				c-1.35,0-2.44-1.09-2.44-2.44C67.99,38.41,69.08,37.32,70.43,37.32C70.43,37.32,70.43,37.32,70.43,37.32"/>
			<path id="Path_140" class="st1" d="M73.42,35.47h1.29v1.23h-1.29V35.47z M74.7,42.07h-1.26v-4.62h1.26V42.07z"/>
			<path id="Path_141" class="st1" d="M75.91,38.32h-0.66v-0.74l0.31-0.05c0.45-0.07,0.58-0.3,0.68-0.73l0.15-0.63h0.76v1.28h1.26
				v0.88h-1.25v2.28c0,0.4,0.18,0.58,0.56,0.58c0.27-0.02,0.54-0.09,0.79-0.22v0.83c-0.37,0.28-0.82,0.42-1.28,0.4
				c-0.64,0.08-1.23-0.37-1.31-1.01c-0.01-0.1-0.01-0.2,0-0.29V38.32z"/>
			<path id="Path_142" class="st1" d="M79.19,35.47h1.29v1.23h-1.29V35.47z M80.47,42.07h-1.26v-4.62h1.26L80.47,42.07z"/>
			<path id="Path_143" class="st1" d="M81.35,38.38v-0.93h3.9v0.86l-2.46,2.83h2.52v0.93h-4.02v-0.86l2.41-2.83H81.35z"/>
			<path id="Path_144" class="st1" d="M90.41,40.56c-0.22,1.03-1.18,1.73-2.22,1.63c-1.26,0.09-2.35-0.85-2.45-2.1
				c-0.01-0.09-0.01-0.18,0-0.26c-0.06-1.32,0.96-2.44,2.28-2.5c0.05,0,0.1,0,0.14,0c1.19-0.07,2.21,0.83,2.29,2.02
				c0.01,0.09,0.01,0.19,0,0.28v0.45h-3.47c0.03,0.67,0.59,1.18,1.26,1.16c0.53,0.05,1.02-0.27,1.16-0.78L90.41,40.56z M89.22,39.29
				c0-0.58-0.46-1.04-1.04-1.05c-0.01,0-0.02,0-0.03,0c-0.6-0.01-1.1,0.45-1.15,1.05H89.22z"/>
			<path id="Path_145" class="st1" d="M92.51,42.07h-1.26v-4.62h1.26v0.75c0.29-0.56,0.88-0.91,1.51-0.88
				c1.24,0,1.69,0.84,1.69,1.87v2.88h-1.26v-2.63c0-0.71-0.28-1.12-0.9-1.12c-0.64,0-1.04,0.5-1.04,1.28L92.51,42.07z"/>
			<path id="Path_146" class="st1" d="M97.47,40.49c0.07,0.56,0.49,0.84,1.13,0.84c0.46,0,0.84-0.16,0.84-0.49
				c0-0.31-0.21-0.45-0.67-0.52l-0.74-0.13c-0.98-0.16-1.53-0.53-1.53-1.38c0-0.88,0.75-1.49,1.92-1.49c1.28,0,2.04,0.58,2.13,1.6
				l-1.04,0.04c-0.09-0.52-0.44-0.79-1.1-0.79c-0.45,0-0.74,0.2-0.74,0.51c0,0.25,0.17,0.4,0.5,0.45l0.88,0.15
				c0.98,0.16,1.55,0.57,1.55,1.44c0,0.94-0.82,1.47-2.01,1.47s-2.13-0.52-2.21-1.66L97.47,40.49z"/>
			<path id="Path_147" class="st1" d="M102.84,37.99v-0.47h0.7v-0.64c-0.09-0.76,0.45-1.44,1.21-1.53c0.07-0.01,0.14-0.01,0.21-0.01
				c0.65-0.06,1.23,0.37,1.36,1.01l-0.47,0.18c-0.09-0.42-0.46-0.72-0.89-0.71c-0.53,0-0.79,0.37-0.79,0.99v0.72h1.31v0.47h-1.31
				v4.08h-0.64v-4.08H102.84z"/>
			<path id="Path_148" class="st1" d="M109.32,37.52h0.64v4.55h-0.64v-0.84c-0.27,0.59-0.86,0.97-1.51,0.96
				c-1.17,0-1.63-0.76-1.63-1.85v-2.82h0.64v2.84c0,0.81,0.39,1.33,1.16,1.33c0.75-0.01,1.35-0.62,1.34-1.37c0-0.02,0-0.05,0-0.07
				V37.52z"/>
			<path id="Path_149" class="st1" d="M111.85,42.07h-0.64v-4.55h0.64v0.84c0.27-0.6,0.87-0.97,1.53-0.96
				c1.17,0,1.67,0.76,1.67,1.85v2.82h-0.64v-2.84c0-0.81-0.42-1.33-1.2-1.33c-0.76,0.01-1.37,0.63-1.36,1.39c0,0.02,0,0.04,0,0.06
				L111.85,42.07z"/>
			<path id="Path_150" class="st1" d="M119.73,41.07c-0.26,0.7-0.93,1.15-1.67,1.13c-1.18-0.01-2.13-0.98-2.12-2.17
				c0-0.08,0.01-0.16,0.02-0.23c-0.14-1.18,0.7-2.24,1.87-2.38c0.08-0.01,0.15-0.01,0.23-0.02c0.74-0.02,1.42,0.43,1.68,1.13v-3.06
				h0.64v6.6h-0.64L119.73,41.07z M119.75,39.63c0.08-0.87-0.57-1.64-1.44-1.71c-0.06-0.01-0.12-0.01-0.18-0.01
				c-0.96,0-1.52,0.72-1.52,1.88s0.56,1.88,1.52,1.88c0.87,0.02,1.6-0.67,1.62-1.54c0-0.06,0-0.12-0.01-0.18V39.63z"/>
		</g>
	</g>
</g>
</svg>
